<svg width="80" height="76" viewBox="0 0 80 76" fill="none" xmlns="http://www.w3.org/2000/svg">
<path d="M27.8163 75.625L21.008 64.1583L8.10801 61.2917L9.36217 48.0333L0.583008 38L9.36217 27.9667L8.10801 14.7083L21.008 11.8417L27.8163 0.375L39.9997 5.57083L52.183 0.375L58.9913 11.8417L71.8913 14.7083L70.6372 27.9667L79.4163 38L70.6372 48.0333L71.8913 61.2917L58.9913 64.1583L52.183 75.625L39.9997 70.4292L27.8163 75.625ZM30.8622 66.4875L39.9997 62.5458L49.3163 66.4875L54.333 57.8875L64.1872 55.5583L63.2913 45.525L69.9205 38L63.2913 30.2958L64.1872 20.2625L54.333 18.1125L49.1372 9.5125L39.9997 13.4542L30.683 9.5125L25.6663 18.1125L15.8122 20.2625L16.708 30.2958L10.0788 38L16.708 45.525L15.8122 55.7375L25.6663 57.8875L30.8622 66.4875ZM36.2372 50.7208L56.483 30.475L51.4663 25.2792L36.2372 40.5083L28.533 32.9833L23.5163 38L36.2372 50.7208Z" fill="black"/>
</svg>
